# xmcd
# 
# Track frame offsets:
#     150
#     12370
#     26437
#     40157
#     54210
#     77320
#     89035
#     102645
#     115007
#     129687
#     144120
#     176430
#     190342
#     203880
#     220360
# 
# Disc length: 3197
# 
# Revision: 5
# Processed by: cddbd v1.5.2PL0 Copyright (c) Steve Scherf et al.
# Submitted via: fre:ac v1.1beta1pre5
# 
DISCID=c70c7b0f
DTITLE=Various Artist - Cookin' the blues
DYEAR=1995
DGENRE=Blues
TTITLE0=John Lee Hooker - 01 Boom,Boom,Boom,Boom
TTITLE1=Koko Taylor - 02 I Got What It Takes
TTITLE2=John Mayal and The Bluesbreakers with Eric Clapton - 03 Double Crossing Time
TTITLE3=Sonny Boy Williamson - 04 Help Me
TTITLE4=B.B.King - 05 The Thrill is Gone
TTITLE5=Etta James - 06 I'd Rather Go Blind
TTITLE6=Koko Taylor - 07 Wang Dang Doodle
TTITLE7=Elmore James - 08 The Sun is Shining
TTITLE8=Bobby Bland - 09 Stormy Monday Blues
TTITLE9=Little Walter - 10 That's it
TTITLE10=Buddy Guy - 11 Stone Grazy
TTITLE11=Bo Diddley - 12 Before You Accuse Me
TTITLE12=Little Milton - 13 Let's Get Together
TTITLE13=Luther Allison - 14 Now You Got it
TTITLE14=Muddy Waters - 15 I Just Want To Make Love To You
EXTD=
EXTT0=
EXTT1=
EXTT2=
EXTT3=
EXTT4=
EXTT5=
EXTT6=
EXTT7=
EXTT8=
EXTT9=
EXTT10=
EXTT11=
EXTT12=
EXTT13=
EXTT14=
PLAYORDER=
